<svg xmlns="http://www.w3.org/2000/svg" xmlns:xlink="http://www.w3.org/1999/xlink" fill="none" version="1.1" width="62" height="16" viewBox="0 0 62 16"><g><path d="M0.744792,2.36458L0.744792,14L3.83854,14L3.83854,7.22917L3.92708,7.22917L6.52083,13.9115L8.38542,13.9115L10.974,7.27604L11.0625,7.27604L11.0625,14L14.1562,14L14.1562,2.36458L10.224,2.36458L7.52083,8.95833L7.38542,8.95833L4.67708,2.36458L0.744792,2.36458ZM19.974,14.1615C22.3958,14.1615,23.9531,13.0052,24.2448,11.1823L21.3854,11.1823C21.2031,11.6771,20.6823,11.9583,20.0417,11.9583C19.1094,11.9583,18.5677,11.3438,18.5677,10.5052L18.5677,10.3646L24.2448,10.3646L24.2448,9.64062C24.2448,6.85938,22.5417,5.16146,19.9062,5.16146C17.2031,5.16146,15.474,6.95833,15.474,9.66146C15.474,12.4844,17.1771,14.1615,19.974,14.1615ZM18.5677,8.64062C18.5833,7.88542,19.2083,7.36458,19.974,7.36458C20.7552,7.36458,21.3438,7.89062,21.3594,8.64062L18.5677,8.64062ZM30.6615,5.27604L29.1615,5.27604L29.1615,3.1875L26.026,3.1875L26.026,5.27604L24.9115,5.27604L24.9115,7.54688L26.026,7.54688L26.026,11.4896C26.0052,13.3229,27.1354,14.2448,29.3021,14.125C30.0104,14.0885,30.5365,13.9427,30.8229,13.8542L30.3698,11.651C30.25,11.6771,29.9427,11.7396,29.7552,11.7396C29.3438,11.7396,29.1615,11.5573,29.1615,11.1979L29.1615,7.54688L30.6615,7.54688L30.6615,5.27604ZM34.224,14.1406C35.3594,14.1406,36.2188,13.7552,36.7448,12.776L36.8177,12.776L36.8177,14L39.7448,14L39.7448,8.02604C39.7448,6.41146,38.2188,5.16146,35.724,5.16146C33.1146,5.16146,31.8333,6.52604,31.724,8.11458L34.6094,8.11458C34.6823,7.57812,35.0833,7.32292,35.6771,7.32292C36.224,7.32292,36.6094,7.57292,36.6094,8.02604L36.6094,8.04688C36.6094,8.55208,36.0521,8.71354,34.5885,8.82292C32.7865,8.95312,31.3854,9.67708,31.3854,11.5938C31.3854,13.3333,32.5521,14.1406,34.224,14.1406ZM35.2448,12.1615C34.7135,12.1615,34.3385,11.901,34.3385,11.4115C34.3385,10.9635,34.6562,10.6146,35.3854,10.5052C35.8854,10.4219,36.3021,10.3229,36.6354,10.1823L36.6354,10.9115C36.6354,11.7083,35.9583,12.1615,35.2448,12.1615ZM44.2604,2.36458L41.125,2.36458L41.125,14L44.2604,14L44.2604,2.36458ZM49.974,14.1615C52.3958,14.1615,53.9531,13.0052,54.2448,11.1823L51.3854,11.1823C51.2031,11.6771,50.6823,11.9583,50.0417,11.9583C49.1094,11.9583,48.5677,11.3438,48.5677,10.5052L48.5677,10.3646L54.2448,10.3646L54.2448,9.64062C54.2448,6.85938,52.5417,5.16146,49.9063,5.16146C47.2031,5.16146,45.474,6.95833,45.474,9.66146C45.474,12.4844,47.1771,14.1615,49.974,14.1615ZM48.5677,8.64062C48.5833,7.88542,49.2083,7.36458,49.974,7.36458C50.7552,7.36458,51.3438,7.89062,51.3594,8.64062L48.5677,8.64062ZM60.6615,5.27604L59.1615,5.27604L59.1615,3.1875L56.026,3.1875L56.026,5.27604L54.9115,5.27604L54.9115,7.54688L56.026,7.54688L56.026,11.4896C56.0052,13.3229,57.1354,14.2448,59.3021,14.125C60.0104,14.0885,60.5365,13.9427,60.8229,13.8542L60.3698,11.651C60.25,11.6771,59.9427,11.7396,59.7552,11.7396C59.3438,11.7396,59.1615,11.5573,59.1615,11.1979L59.1615,7.54688L60.6615,7.54688L60.6615,5.27604Z" fill="#141416" fill-opacity="1"/></g></svg>