<svg xmlns="http://www.w3.org/2000/svg" xmlns:xlink="http://www.w3.org/1999/xlink" fill="none" version="1.1" width="130" height="130" viewBox="0 0 130 130"><defs><linearGradient x1="0.5" y1="0" x2="0.5" y2="1" id="master_svg0_121_0940"><stop offset="30.20532727241516%" stop-color="#C7FCFF" stop-opacity="1"/><stop offset="100%" stop-color="#FFFFFF" stop-opacity="1"/></linearGradient><linearGradient x1="1.0119049549102783" y1="0.5" x2="0.005953979678452015" y2="0.5" id="master_svg1_8_0359"><stop offset="0%" stop-color="#171AFF" stop-opacity="1"/><stop offset="100%" stop-color="#72F5F6" stop-opacity="1"/></linearGradient><linearGradient x1="1.0119049549102783" y1="0.5" x2="0.005953979678452015" y2="0.5" id="master_svg2_8_0359"><stop offset="0%" stop-color="#171AFF" stop-opacity="1"/><stop offset="100%" stop-color="#72F5F6" stop-opacity="1"/></linearGradient></defs><g><g style="opacity:0;"><rect x="0" y="0" width="130" height="130" rx="0" fill="#FFFFFF" fill-opacity="1"/></g><g><path d="M24.916666984558105,40.08333396911621L8.666666984558105,17.33333396911621L43.333366984558104,26.00000396911621L64.99996698455811,22.75000396911621L86.6666669845581,26.00000396911621L121.3336669845581,17.33333396911621L105.08336698455811,40.08333396911621L105.08336698455811,63.91663396911621L115.9166669845581,75.83333396911621L113.7496669845581,84.50003396911622L107.2499669845581,81.2500339691162L115.9166669845581,92.08333396911621L113.7496669845581,101.83333396911621L98.58336698455811,94.25003396911622L95.33336698455811,102.9166339691162L84.4999669845581,109.4166339691162L80.1666669845581,102.9166339691162L74.7499669845581,108.33333396911621L64.99996698455811,112.6666339691162L55.24996698455811,108.33333396911621L49.833366984558104,102.9166339691162L45.49996698455811,109.4166339691162L34.666666984558105,102.9166339691162L31.416666984558105,94.25003396911622L16.249996984558106,101.83333396911621L14.083336984558105,92.08333396911621L22.749966984558107,81.2500339691162L16.249996984558106,84.50003396911622L14.083336984558105,75.83333396911621L24.916666984558105,63.91663396911621L24.916666984558105,40.08333396911621Z" fill-rule="evenodd" fill="url(#master_svg0_121_0940)" fill-opacity="1"/></g><g><path d="M74.2399,59.702012908935544L91.1716,40.351510373705544C93.09190000000001,42.61723290893555,94.25,45.54940290893555,94.25,48.752052908935546C94.25,55.931712908935545,88.4297,61.75201290893555,81.25,61.75201290893555C78.66839999999999,61.75201290893555,76.26259999999999,60.999612908935546,74.2399,59.702012908935544ZM38.82841,40.35151101191555L55.7601,59.702012908935544C53.7374,60.999612908935546,51.3316,61.75201290893555,48.75,61.75201290893555C41.5703,61.75201290893555,35.75,55.931712908935545,35.75,48.752052908935546C35.75,45.54940290893555,36.90812,42.61723290893555,38.82841,40.35151101191555Z" fill-rule="evenodd" fill="#FFFFFF" fill-opacity="1"/></g><g><path d="M77.87666793823243,55.54559206542969L87.53506793823243,44.50748183442969C88.35466793823242,45.718692065429686,88.83336793823241,47.17946206542969,88.83336793823241,48.752022065429685C88.83336793823241,52.94018206542969,85.43816793823243,56.33539206542969,81.24996793823243,56.33539206542969C80.03816793823242,56.33539206542969,78.89276793823242,56.051092065429685,77.87666793823243,55.54559206542969ZM42.46490793823242,44.507480521429684L52.12326793823242,55.54559206542969C51.10727793823242,56.051092065429685,49.96183793823242,56.33539206542969,48.749997938232426,56.33539206542969C44.56183793823242,56.33539206542969,41.16666793823242,52.94018206542969,41.16666793823242,48.752022065429685C41.16666793823242,47.17946206542969,41.645331938232424,45.718692065429686,42.46490793823242,44.507480521429684Z" fill-rule="evenodd" fill="#182A72" fill-opacity="1"/></g><g style="opacity:0.5;"><path d="M8.666666984558105,17.33333396911621L35.74996698455811,36.83333396911621L58.49996698455811,62.83333396911621L64.99996698455811,76.91663396911622L71.49996698455811,62.83333396911621L94.2499669845581,36.83333396911621L121.3336669845581,17.33333396911621L86.6666669845581,26.00000396911621L64.99996698455811,22.75000396911621L43.333366984558104,26.00000396911621L8.666666984558105,17.33333396911621Z" fill="url(#master_svg1_8_0359)" fill-opacity="1"/></g><g><path d="M43.333335876464844,25.99999603088379L65.00003587646484,54.742166030883794L52.00000587646484,24.91666603088379L43.333335876464844,25.99999603088379ZM65.00003587646484,54.742166030883794L86.66663587646485,25.99999603088379L78.06403587646484,24.91666603088379L65.00003587646484,54.742166030883794Z" fill="#EBFEFF" fill-opacity="1"/></g><g><path d="M24.916666984558105,63.91663396911621L24.916666984558105,40.08333396911621L8.666666984558105,17.33333396911621L43.333366984558104,26.00000396911621L64.99996698455811,22.75000396911621L86.6666669845581,26.00000396911621L115.34866698455811,18.82939396911621L121.3336669845581,17.33333396911621L117.74766698455811,22.35276396911621L105.08336698455811,40.08333396911621L105.08336698455811,63.91663396911621L115.9166669845581,75.83333396911621L114.7436669845581,80.52473396911621L114.0406669845581,83.3357339691162L113.7496669845581,84.50003396911622L110.08466698455811,82.6675339691162L107.2499669845581,81.2500339691162L113.21266698455811,88.70353396911621L115.9166669845581,92.08333396911621L114.6446669845581,97.80843396911621L113.7496669845581,101.83333396911621L98.58336698455811,94.25003396911622L97.17106698455811,98.01603396911621L95.33336698455811,102.9166339691162L84.4999669845581,109.4166339691162L82.4293669845581,106.31073396911621L80.1666669845581,102.9166339691162L74.7499669845581,108.33333396911621L64.99996698455811,112.6666339691162L55.24996698455811,108.33333396911621L52.717766984558104,105.80113396911621L49.833366984558104,102.9166339691162L47.570566984558106,106.31073396911621L45.49996698455811,109.4166339691162L34.666666984558105,102.9166339691162L32.82896698455811,98.01603396911621L31.416666984558105,94.25003396911622L27.819166984558105,96.04873396911621L19.937866984558106,99.9894339691162L16.249996984558106,101.83333396911621L15.355576984558105,97.80843396911621L14.083336984558105,92.08333396911621L16.787156984558106,88.70353396911621L22.749966984558107,81.2500339691162L19.914966984558106,82.6675339691162L16.249996984558106,84.50003396911622L15.958926984558104,83.3357339691162L15.256196984558105,80.52473396911621L14.083336984558105,75.83333396911621L24.916666984558105,63.91663396911621ZM28.171566984558105,37.75833396911621L18.236206984558105,23.84882396911621L43.1374669845581,30.07413396911621L64.99996698455811,26.79475396911621L86.8625669845581,30.07413396911621L111.7636669845581,23.84882396911621L101.08336698455811,38.80143396911621L101.08336698455811,65.46313396911621L111.5166669845581,76.9400339691162L111.07866698455811,78.69223396911622L92.7496669845581,69.52773396911621L111.59666698455811,93.08593396911621L110.95666698455811,95.96453396911622L96.3980669845581,88.68523396911621L92.07816698455811,100.20503396911622L85.71256698455811,104.02433396911621L80.78836698455811,96.63813396911621L72.44676698455811,104.97973396911621L64.99996698455811,108.28943396911622L57.55326698455811,104.97973396911621L49.21166698455811,96.63813396911621L44.28746698455811,104.02433396911621L37.921766984558104,100.20503396911622L33.6018669845581,88.68523396911621L19.043366984558105,95.96453396911622L18.403716984558105,93.08593396911621L37.250366984558106,69.52773396911621L18.921166984558106,78.69223396911622L18.483106984558106,76.9400339691162L28.916666984558105,65.46313396911621L28.916666984558105,38.80143396911621L28.171566984558105,37.75833396911621Z" fill-rule="evenodd" fill="url(#master_svg2_8_0359)" fill-opacity="1"/></g><g><path d="M65,76.91669999999999L58.5,62.833330000000004L65,55.25L71.5,62.833330000000004L65,76.91669999999999Z" fill-rule="evenodd" fill="#182A72" fill-opacity="1"/></g></g></svg>