<svg xmlns="http://www.w3.org/2000/svg" xmlns:xlink="http://www.w3.org/1999/xlink" fill="none" version="1.1" width="60" height="60" viewBox="0 0 60 60"><defs><mask id="master_svg0_652_4974"><g><ellipse cx="30" cy="30" rx="30" ry="30" fill="#FFFFFF" fill-opacity="1"/></g></mask><linearGradient x1="0.5" y1="0" x2="0.5" y2="1" id="master_svg1_652_4642"><stop offset="0%" stop-color="#282828" stop-opacity="1"/><stop offset="100%" stop-color="#121212" stop-opacity="1"/></linearGradient></defs><g mask="url(#master_svg0_652_4974)"><g><g><g><g><g><rect x="0" y="0" width="60" height="60" rx="30" fill="url(#master_svg1_652_4642)" fill-opacity="1"/></g></g><g><g><rect x="0" y="0" width="60" height="60" rx="30" fill="#000000" fill-opacity="1"/></g></g></g><g><g><path d="M27.539099999999998,15.5859375L27.539099999999998,19.3346475L22.7881,19.3346475C21.54089,19.3346475,20.94367,19.9518475,20.93161,21.2013575L20.93143,21.2402075L20.93143,26.940037500000003C20.93143,28.4577375,20.55757,29.4064375,19.716920000000002,29.9689375L19.68518,29.9898375L19.66922,30.000037499999998L19.68518,30.010237500000002C20.52646,30.555837500000003,20.911839999999998,31.4755375,20.9307,32.9450375L20.93124,33.0018375L20.93143,38.7598375C20.93143,40.0223375,21.51592,40.652437500000005,22.74973,40.6651375L22.7881,40.6653375L27.539099999999998,40.6653375L27.539099999999998,44.4140375L21.91378,44.4140375C18.36636,44.4140375,16.45261,42.6027375,16.41469,39.2518375L16.41411,39.1497375L16.41411,32.9699375C16.41411,32.2314375,16.111530000000002,31.9141375,15.46244,31.9045375L15.43176,31.9043375L14.0625,31.9043375L14.0625,28.095637500000002L15.43176,28.095637500000002C16.09169,28.095637500000002,16.40443,27.7897375,16.41389,27.0643375L16.41411,27.0300375L16.41411,20.8502175C16.41411,17.4682075,18.2924,15.6230564,21.80678,15.586491651L21.91378,15.5859375L27.539099999999998,15.5859375ZM38.081199999999995,15.5859375C41.6241,15.5859375,43.5549,17.4038275,43.593199999999996,20.7483975L43.5937,20.8502175L43.5937,27.0300375C43.5937,27.7659375,43.8929,28.0857375,44.512299999999996,28.0954375L44.5415,28.095637500000002L45.9375,28.095637500000002L45.9375,31.9043375L44.5415,31.9043375C43.9122,31.9043375,43.603300000000004,32.2128375,43.594,32.9357375L43.5937,32.9699375L43.5937,39.1497375C43.5937,42.5251375,41.6984,44.3768375,38.188,44.413537500000004L38.081199999999995,44.4140375L32.460899999999995,44.4140375L32.460899999999995,40.6653375L37.2098,40.6653375C38.4786,40.6653375,39.076899999999995,40.0512375,39.088899999999995,38.7983375L39.089,38.7598375L39.089,33.059937500000004C39.089,33.0033375,39.0895,32.9476375,39.0905,32.8926375L39.093199999999996,32.7837375C39.1353,31.4177375,39.5001,30.5531375,40.2774,30.0285375L40.3083,30.0080375L40.3207,30.000037499999998L40.3083,29.992037500000002C39.4792,29.449537499999998,39.1078,28.533137500000002,39.0897,27.0549375L39.089200000000005,26.9984375L39.089,26.940037500000003L39.089,21.2402075C39.089,19.9742375,38.5035,19.3473775,37.248400000000004,19.3348375L37.2098,19.3346475L32.460899999999995,19.3346475L32.460899999999995,15.5859375L38.081199999999995,15.5859375ZM30,24.0234375C33.300799999999995,24.0234375,35.976600000000005,26.699237500000002,35.976600000000005,30.000037499999998C35.976600000000005,33.3007375,33.300799999999995,35.9765375,30,35.9765375C26.699199999999998,35.9765375,24.02344,33.3007375,24.02344,30.000037499999998C24.02344,26.699237500000002,26.699199999999998,24.0234375,30,24.0234375ZM30,27.011737500000002C28.349600000000002,27.011737500000002,27.011699999999998,28.3496375,27.011699999999998,30.000037499999998C27.011699999999998,31.6503375,28.349600000000002,32.9882375,30,32.9882375C31.6504,32.9882375,32.988299999999995,31.6503375,32.988299999999995,30.000037499999998C32.988299999999995,28.3496375,31.6504,27.011737500000002,30,27.011737500000002Z" fill="#FFFFFF" fill-opacity="1"/></g></g></g></g></g></svg>