<svg xmlns="http://www.w3.org/2000/svg" xmlns:xlink="http://www.w3.org/1999/xlink" fill="none" version="1.1" width="36" height="29.4285888671875" viewBox="0 0 36 29.4285888671875"><g style="mix-blend-mode:passthrough"><g><path d="M12.17969,6.92266L12.41406,10.5424L9.11979,9.18177L8.494792,11.0242L11.97786,11.9422L9.575520000000001,14.6049L11.09896,15.8029L13.15625,12.782L15.22005,15.8029L16.736980000000003,14.6049L14.33464,11.9422L17.817709999999998,11.0242L17.19922,9.18177L13.89844,10.5424L14.13932,6.92266L12.17969,6.92266Z" fill="#141416" fill-opacity="1"/></g><g><path d="M29.17969,6.92266L29.41406,10.5424L26.119790000000002,9.18177L25.494792,11.0242L28.97786,11.9422L26.57552,14.6049L28.098959999999998,15.8029L30.15625,12.782L32.22005,15.8029L33.73698,14.6049L31.33464,11.9422L34.81771,11.0242L34.19922,9.18177L30.89844,10.5424L31.139319999999998,6.92266L29.17969,6.92266Z" fill="#141416" fill-opacity="1"/></g><g style="mix-blend-mode:passthrough"><rect x="0" y="3" width="2" height="18" rx="1" fill="#141416" fill-opacity="1"/></g></g></svg>