<svg xmlns="http://www.w3.org/2000/svg" xmlns:xlink="http://www.w3.org/1999/xlink" fill="none" version="1.1" width="30" height="30" viewBox="0 0 30 30"><defs><clipPath id="master_svg0_2078_6884"><rect x="7" y="7" width="16" height="16" rx="0"/></clipPath></defs><g><rect x="0" y="0" width="30" height="30" rx="0" fill-opacity="1"/><g><g><g><ellipse cx="15" cy="15" rx="15" ry="15" fill="#494949" fill-opacity="1"/></g></g></g><g clip-path="url(#master_svg0_2078_6884)"><g><path d="M11.6666311328125,14.6666259765625C10.0097711328125,14.6666259765625,8.6666259728125,13.3234759765625,8.6666259728125,11.6666259765625C8.6666259728125,10.0097759765625,10.0097711328125,8.6666259765625,11.6666311328125,8.6666259765625C13.3234811328125,8.6666259765625,14.666631132812501,10.0097759765625,14.666631132812501,11.6666259765625C14.666631132812501,13.3234759765625,13.3234811328125,14.6666259765625,11.6666311328125,14.6666259765625ZM11.6666311328125,21.3333259765625C10.0092011328125,21.3341259765625,8.6651611328125,19.9907259765625,8.6651611328125,18.3332959765625C8.6651611328125,16.6758659765625,10.0092011328125,15.3324859765625,11.6666311328125,15.3332959765625C13.3229111328125,15.334105976562501,14.6651611328125,16.6770159765625,14.6651611328125,18.3332959765625C14.6651611328125,19.9896259765625,13.3229111328125,21.3325259765625,11.6666311328125,21.3333259765625ZM18.333291132812498,14.6666259765625C16.6764411328125,14.6666259765625,15.3332911328125,13.3234759765625,15.3332911328125,11.6666259765625C15.3332911328125,10.0097759765625,16.6764411328125,8.6666259765625,18.333291132812498,8.6666259765625C19.9901611328125,8.6666259765625,21.333261132812503,10.0097759765625,21.333261132812503,11.6666259765625C21.333261132812503,13.3234759765625,19.9901611328125,14.6666259765625,18.333291132812498,14.6666259765625ZM18.333291132812498,21.3333259765625C16.6758711328125,21.3341259765625,15.3318311328125,19.9907259765625,15.3318311328125,18.3332959765625C15.3318311328125,16.6758659765625,16.6758711328125,15.3324859765625,18.333291132812498,15.3332959765625C19.9895611328125,15.334105976562501,21.3318611328125,16.6770159765625,21.3318611328125,18.3332959765625C21.3318611328125,19.9896259765625,19.9895611328125,21.3325259765625,18.333291132812498,21.3333259765625Z" fill="#F5F5F5" fill-opacity="1"/></g></g></g></svg>