<svg xmlns="http://www.w3.org/2000/svg" xmlns:xlink="http://www.w3.org/1999/xlink" fill="none"
    version="1.1" width="13.5" height="15.000014305114746" viewBox="0 0 13.5 15.000014305114746">
    <g>
        <path
            d="M3,3L3,0.75C3,0.335786,3.33579,0,3.75,0L12.75,0C13.1642,0,13.5,0.335786,13.5,0.75L13.5,11.25C13.5,11.6642,13.1642,12,12.75,12L10.5,12L10.5,14.25C10.5,14.664,10.1625,15,9.74475,15L0.75525,15C0.339159,15.0025,0.000408769,14.6661,0,14.25L0.00225002,3.75C0.00225002,3.336,0.33975,3,0.7575,3L3,3ZM4.5,3L10.5,3L10.5,10.5L12,10.5L12,1.5L4.5,1.5L4.5,3Z"
            fill="#999999" fill-opacity="1" />
    </g>
</svg>