<svg xmlns="http://www.w3.org/2000/svg" xmlns:xlink="http://www.w3.org/1999/xlink" fill="none" version="1.1" width="10" height="8" viewBox="0 0 10 8"><g transform="matrix(1,0,0,-1,0,16)"><path d="M8.1861,12.41479Q8.20619,12.442630000000001,8.22432,12.47177Q8.24245,12.50092,8.25854,12.53124Q8.27463,12.56156,8.28861,12.59291Q8.30258,12.62426,8.31437,12.656500000000001Q8.32616,12.68873,8.33571,12.7217Q8.34527,12.75467,8.35254,12.788219999999999Q8.35981,12.82177,8.36476,12.855730000000001Q8.36971,12.889700000000001,8.37232,12.923919999999999Q8.37493,12.95815,8.37519,12.99247Q8.37545,13.0268,8.37335,13.061060000000001Q8.37126,13.095320000000001,8.36682,13.129349999999999Q8.36238,13.16339,8.35561,13.197040000000001Q8.34885,13.23069,8.33979,13.2638Q8.33074,13.29691,8.31944,13.32932Q8.30813,13.36173,8.29463,13.39329Q8.28113,13.42485,8.2655,13.45541Q8.24987,13.48597,8.23218,13.51538Q8.21449,13.5448,8.19482,13.57293Q8.17516,13.60106,8.15361,13.62778Q8.13206,13.654499999999999,8.10873,13.679680000000001Q8.0854,13.70485,8.0604,13.72837Q8.0354,13.75189,8.00884,13.77364Q7.98229,13.795390000000001,7.9543,13.81527Q7.92632,13.835139999999999,7.89704,13.85306Q7.86776,13.87097,7.83732,13.88683Q7.80688,13.90269,7.77542,13.91643Q7.74396,13.93016,7.71164,13.94171Q7.67932,13.95326,7.64627,13.96256Q7.61323,13.97187,7.57964,13.97888Q7.54603,13.9859,7.51203,13.9906Q7.47803,13.99529,7.44379,13.99765Q7.40954,14,7.37522,14L2.62478,14Q2.59046,14,2.55621,13.99765Q2.52197,13.99529,2.48797,13.9906Q2.45396,13.9859,2.42036,13.97888Q2.38676,13.97187,2.35372,13.96256Q2.32068,13.95326,2.28836,13.94171Q2.25604,13.93016,2.22458,13.91643Q2.19312,13.90269,2.16268,13.88683Q2.13224,13.87097,2.10296,13.85306Q2.07368,13.835139999999999,2.0457,13.81527Q2.01771,13.795390000000001,1.99116,13.77364Q1.9646,13.75189,1.9396,13.72837Q1.9146,13.70485,1.89127,13.679680000000001Q1.86794,13.654499999999999,1.84639,13.62778Q1.82484,13.60106,1.80518,13.57293Q1.78551,13.5448,1.76782,13.51538Q1.75013,13.48597,1.7345,13.45541Q1.71887,13.42485,1.70537,13.39329Q1.69187,13.36173,1.68056,13.32932Q1.66926,13.29691,1.6602,13.2638Q1.65115,13.23069,1.64439,13.197040000000001Q1.63762,13.16339,1.63318,13.129349999999999Q1.62874,13.095320000000001,1.62665,13.061060000000001Q1.62455,13.0268,1.62481,12.99247Q1.62507,12.95815,1.62768,12.923919999999999Q1.63029,12.889700000000001,1.63524,12.855730000000001Q1.6402,12.82177,1.64746,12.788219999999999Q1.65473,12.75467,1.66429,12.7217Q1.67384,12.68874,1.68563,12.656500000000001Q1.69742,12.62426,1.71139,12.59291Q1.72537,12.56156,1.74146,12.53124Q1.75755,12.50092,1.77568,12.47177Q1.79381,12.442630000000001,1.8139,12.41479L4.18912,9.1236Q4.22374,9.07561,4.26379,9.03205Q4.30383,8.988485,4.34874,8.949948Q4.39364,8.911411,4.44278,8.878439Q4.49191,8.845466,4.54459,8.818518Q4.59727,8.791571,4.65276,8.771024Q4.70825,8.750477,4.76578,8.736617Q4.82331,8.722758,4.88207,8.715779Q4.94083,8.708801,5,8.708801Q5.05917,8.708801,5.11793,8.715779Q5.17669,8.722758,5.23422,8.736617Q5.29175,8.750477,5.34724,8.771024Q5.40273,8.791571,5.45541,8.818518Q5.50809,8.845466,5.55722,8.878439Q5.60636,8.911411,5.65126,8.949948Q5.69617,8.988485,5.73621,9.03205Q5.77626,9.07561,5.81088,9.1236L8.1861,12.41479Z" fill="#999999" fill-opacity="1"/></g></svg>