<svg xmlns="http://www.w3.org/2000/svg" xmlns:xlink="http://www.w3.org/1999/xlink" fill="none" version="1.1" width="49.5" height="57.75" viewBox="0 0 49.5 57.75"><g><path d="M41.25,19.25L46.75,19.25C48.2688,19.25,49.5,20.4812,49.5,22L49.5,55C49.5,56.5188,48.2688,57.75,46.75,57.75L2.75,57.75C1.23122,57.75,0,56.5188,0,55L0,22C0,20.4812,1.23122,19.25,2.75,19.25L8.25,19.25L8.25,16.5C8.25,7.3873,15.6373,0,24.75,0C33.8627,0,41.25,7.3873,41.25,16.5L41.25,19.25ZM22,40.513L22,46.75L27.5,46.75L27.5,40.513C30.4615,38.8032,31.1613,34.8341,28.9632,32.2145C26.7652,29.595,22.7348,29.595,20.5368,32.2145C18.3387,34.8341,19.0385,38.8032,22,40.513ZM35.75,19.25L35.75,16.5C35.75,10.4249,30.8251,5.5,24.75,5.5C18.6749,5.5,13.75,10.4249,13.75,16.5L13.75,19.25L35.75,19.25Z" fill="#141416" fill-opacity="1"/></g></svg>