<svg xmlns="http://www.w3.org/2000/svg" xmlns:xlink="http://www.w3.org/1999/xlink" fill="none" version="1.1" width="66" height="66" viewBox="0 0 66 66"><defs><clipPath id="master_svg0_2090_6339"><rect x="0" y="0" width="66" height="66" rx="0"/></clipPath></defs><g clip-path="url(#master_svg0_2090_6339)"><g><path d="M47.3468,44.82639237060547C47.6175,48.65629237060547,47.294,52.50509237060547,46.3877,56.23609237060547C42.3176,58.58539237060547,37.6995,59.81909237060547,33,59.81249237060547C29.37,59.81249237060547,25.9071,59.09059237060547,22.7494,57.78299237060547C22.0139,55.70979237060547,21.465899999999998,53.57479237060547,21.111800000000002,51.40369237060547C22.3101,51.508892370605466,23.5249,51.56249237060547,24.75,51.56249237060547C32.723600000000005,51.56249237060547,40.1693,49.29989237060547,46.4785,45.38329237060547L47.3468,44.82639237060547ZM11.873840000000001,49.51239237060547C13.492899999999999,50.04449237060547,15.15321,50.47759237060547,16.854799999999997,50.80759237060547C17.040399999999998,52.21839237060547,17.2962,53.60639237060547,17.622,54.96979237060547C15.53843,53.50619237060547,13.671990000000001,51.75579237060547,12.07802,49.77019237060547L11.873840000000001,49.51239237060547ZM59.6207,36.22989237060547C58.8613,42.52679237060547,55.8891,48.34909237060547,51.2346,52.65769237060547C51.6824,49.10639237060547,51.672,45.51229237060547,51.2036,41.96359237060547C52.9774,40.47859237060547,54.6253,38.84929237060547,56.1268,37.08989237060547C57.3082,37.22829237060547,58.5009,36.95199237060547,59.5011,36.30829237060547L59.6207,36.22779237060547L59.6207,36.22989237060547ZM32.7917,17.88809237060547C40.0139,23.37929237060547,44.9752,31.325192370605468,46.7383,40.22489237060547C40.3699,44.92079237060547,32.6626,47.44899237060547,24.75,47.43749237060547C23.3723,47.43749237060547,22.011,47.36329237060547,20.6704,47.21679237060547C20.6051,45.87679237060547,20.6113,44.53429237060547,20.689,43.194892370605466C22.7143,42.75679237060547,24.2803,41.14839237060547,24.6642,39.11209237060547C25.048,37.07579237060547,24.1751,35.007592370605465,22.4483,33.86209237060547C24.2914,28.212292370605468,27.4653,23.08819237060547,31.7027,18.921392370605467L32.4102,18.24279237060547L32.7917,17.89009237060547L32.7917,17.88809237060547ZM17.164099999999998,11.36024237060547L17.6241,11.032312370605469L18.5687,11.234432370605468L18.5625,11.343752370605468C18.5621,13.519242370605468,19.9271,15.460962370605468,21.9743,16.196992370605468C24.0215,16.93299237060547,26.3104,16.30499237060547,27.6953,14.627252370605468C28.2315,14.911872370605469,28.7616,15.21093237060547,29.2834,15.520312370605469C24.1923,20.369792370605467,20.4252,26.43999237060547,18.3398,33.15469237060547C16.3868,33.64399237060547,14.89731,35.22519237060547,14.52543,37.20389237060547C14.15354,39.18259237060547,14.96732,41.19669237060547,16.609299999999998,42.36169237060547C16.508499999999998,43.74589237060547,16.4775,45.13439237060547,16.5165,46.52179237060547C13.701730000000001,45.88449237060547,10.97153,44.918792370605466,8.38203,43.644592370605466C6.9295670000000005,40.28399237060547,6.18264084,36.66099237060547,6.1875239182,32.99999237060547C6.1875239182,24.114792370605468,10.50846,16.240092370605467,17.164099999999998,11.36024237060547ZM46.6785,9.932992370605469C52.4787,13.378872370605468,56.7709,18.87999237060547,58.7029,25.34399237060547C58.4636,25.890592370605468,58.2079,26.428892370605467,57.9398,26.960992370605467C55.8489,26.45059237060547,53.661,27.29259237060547,52.4517,29.07299237060547C51.2424,30.85339237060547,51.2661,33.197692370605466,52.5113,34.953192370605464C51.81,35.749292370605474,51.0675,36.516592370605466,50.2941,37.24879237060547C48.0761,28.55799237060547,43.0867,20.82669237060547,36.0814,15.225372370605468C39.1608,13.006992370605468,42.5632,11.275552370605467,46.1691,10.091812370605469L46.6765,9.933002370605468L46.6785,9.932992370605469ZM33,6.187497406005469C35.916399999999996,6.187497406005469,38.7255,6.6536223706054685,41.3532,7.513682370605469C38.2204,8.871172370605468,35.2689,10.613652370605468,32.566900000000004,12.700872370605468C31.354,11.922062370605468,30.101,11.20746237060547,28.8132,10.560002370605469C28.5883,9.087552370605469,27.7368,7.784662370605469,26.4784,6.987747370605469C28.6113,6.454886370605469,30.8016,6.186122740605469,33,6.187497406005469Z" fill="#141416" fill-opacity="1"/></g></g></svg>