<svg xmlns="http://www.w3.org/2000/svg" xmlns:xlink="http://www.w3.org/1999/xlink" fill="none" version="1.1" width="16" height="16" viewBox="0 0 16 16"><g><g><ellipse cx="8" cy="8" rx="8" ry="8" fill="#494949" fill-opacity="1"/></g><g><path d="M4,8.40486L6.201700000000001,8.40486C6.270490000000001,9.68699,6.676270000000001,10.92769,7.3775200000000005,12C5.57111,11.71423,4.183461,10.237169999999999,4,8.40486ZM4,7.59514C4.183461,5.76283,5.57111,4.285769,7.3775200000000005,4C6.676270000000001,5.07231,6.270490000000001,6.31301,6.201700000000001,7.59514L4,7.59514ZM11.999600000000001,7.59514L9.7979,7.59514C9.72911,6.31301,9.32333,5.07231,8.62208,4C10.42849,4.285769,11.81614,5.76283,11.999600000000001,7.59514ZM11.999600000000001,8.40486C11.81614,10.237169999999999,10.42849,11.71423,8.62208,12C9.32333,10.92769,9.72911,9.68699,9.7979,8.40486L12,8.40486L11.999600000000001,8.40486ZM7.006880000000001,8.40486L8.992709999999999,8.40486C8.926549999999999,9.49777,8.584810000000001,10.55564,7.9998000000000005,11.478539999999999C7.41478,10.55564,7.07305,9.49777,7.006880000000001,8.40486ZM7.006880000000001,7.59514C7.07305,6.50223,7.41478,5.44436,7.9998000000000005,4.521457C8.58482,5.44436,8.926549999999999,6.50223,8.992709999999999,7.59514L7.006880000000001,7.59514Z" fill="#D8D8D8" fill-opacity="1"/></g></g></svg>