<svg xmlns="http://www.w3.org/2000/svg" xmlns:xlink="http://www.w3.org/1999/xlink" fill="none" version="1.1" width="30" height="30" viewBox="0 0 30 30"><defs><clipPath id="master_svg0_6_7902"><rect x="0" y="0" width="30" height="30" rx="0"/></clipPath></defs><g style="mix-blend-mode:passthrough" clip-path="url(#master_svg0_6_7902)"><g style="mix-blend-mode:passthrough"><path d="M1.5,20.5112578125L3.5714,20.5112578125L3.5714,16.0957378125C3.5714,14.8088878125,3.3800499999999998,13.4215778125,3.29394,12.2256178125L3.3657,12.2256178125L4.47077,14.5983978125L7.5994,20.5112578125L9.8191,20.5112578125L9.8191,9.4892578125L7.76205,9.4892578125L7.76205,13.8664678125C7.76205,15.1676778125,7.93905,16.6315278125,8.05386,17.779657812499998L7.98211,17.779657812499998L6.88182,15.3925178125L3.7197,9.4892578125L1.5,9.4892578125L1.5,20.5112578125ZM12.522,20.5112578125L14.6986,20.5112578125L14.6986,15.9187378125L18.564,15.9187378125L18.564,14.1008778125L14.6986,14.1008778125L14.6986,11.3118978125L19.2241,11.3118978125L19.2241,9.4892578125L12.522,9.4892578125L12.522,20.5112578125ZM23.2569,20.5112578125L25.4288,20.5112578125L25.4288,11.3118978125L28.5,11.3118978125L28.5,9.4892578125L20.2,9.4892578125L20.2,11.3118978125L23.2569,11.3118978125L23.2569,20.5112578125Z" fill="#141416" fill-opacity="1"/></g></g></svg>