<svg xmlns="http://www.w3.org/2000/svg" xmlns:xlink="http://www.w3.org/1999/xlink" fill="none" version="1.1" width="24" height="24" viewBox="0 0 24 24"><defs><clipPath id="master_svg0_6_850"><rect x="0" y="0" width="24" height="24" rx="0"/></clipPath></defs><g clip-path="url(#master_svg0_6_850)"><g><path d="M5.33404515625,4.5449482421875C6.36077515625,3.6252282421875,7.56673515625,2.9279402421875,8.876045156250001,2.4969482421875C9.634445156249999,3.4470682421875,10.78436515625,3.9999482421875,12.00003515625,3.9989482421875C13.21573515625,3.9999382421875,14.36563515625,3.4470672421875,15.12403515625,2.4969484806065C16.43333515625,2.9279412421875,17.63933515625,3.6252282421875,18.66603515625,4.5449482421875C18.22343515625,5.6761982421875,18.31983515625,6.9474082421875,18.92803515625,7.9989482421875C19.53493515625,9.0525182421875,20.58883515625,9.772168242187501,21.79103515625,9.9539482421875C22.07163515625,11.3028482421875,22.07163515625,12.6950482421875,21.79103515625,14.0439482421875C20.63103515625,14.2219482421875,19.56103515625,14.9039482421875,18.92803515625,15.9989482421875C18.31953515625,17.050748242187503,18.22313515625,18.322448242187498,18.66603515625,19.4539482421875C17.639235156250002,20.3733482421875,16.43323515625,21.0702482421875,15.12403515625,21.5009482421875C14.36543515625,20.5512482421875,13.21553515625,19.9987482421875,12.00003515625,19.9999482421875C10.78436515625,19.9989482421875,9.634445156249999,20.5518482421875,8.876045156250001,21.5019482421875C7.56681515625,21.0712482421875,6.36086515625,20.3743482421875,5.33404515625,19.4549482421875C5.77697515625,18.3234482421875,5.68054515625,17.0517482421875,5.072045156250001,15.9999482421875C4.46491515625,14.9467482421875,3.41107515625,14.2275482421875,2.20904915625,14.0459482421875C1.92836365625,12.6967482421875,1.92836365625,11.3041782421875,2.20904915625,9.9549482421875C3.41125515625,9.7731682421875,4.46514515625,9.0535282421875,5.072045156250001,7.9999482421875C5.68022515625,6.9484082421875,5.7766551562499995,5.6771982421875,5.33404515625,4.5459482421874995L5.33404515625,4.5449482421875ZM13.50003515625,14.5969482421875C14.94713515625,13.7741482421875,15.44763515625,11.9305682421875,14.61533515625,10.4889682421875C13.78303515625,9.047368242187499,11.93609515625,8.5590682421875,10.50004515625,9.4009482421875C9.07740515625,10.234968242187499,8.594655156249999,12.0608882421875,9.41922515625,13.4890482421875C10.24378515625,14.9171482421875,12.06643515625,15.4120482421875,13.50003515625,14.5969482421875Z" fill="currentColor" fill-opacity="1"/></g></g></svg>