<svg xmlns="http://www.w3.org/2000/svg" xmlns:xlink="http://www.w3.org/1999/xlink" fill="none" version="1.1" width="22" height="22" viewBox="0 0 22 22"><defs><clipPath id="master_svg0_81_937"><rect x="0" y="0" width="22" height="22" rx="0"/></clipPath></defs><g clip-path="url(#master_svg0_81_937)"><g><path d="M9.80990298828125,19.017473941040038Q10.33877298828125,18.62507394104004,10.99998298828125,18.62507394104004Q11.66119298828125,18.62507394104004,12.19001298828125,19.017473941040038Q12.70981298828125,19.403073941040038,12.90551298828125,20.01517394104004Q12.92771298828125,20.084673941040037,12.96291298828125,20.148573941040038Q12.99801298828125,20.212473941040038,13.04491298828125,20.26837394104004Q13.09171298828125,20.32427394104004,13.14841298828125,20.37007394104004Q13.20511298828125,20.41597394104004,13.26961298828125,20.44997394104004Q13.33401298828125,20.484073941040037,13.40391298828125,20.505073941040038Q13.47371298828125,20.52607394104004,13.54631298828125,20.53327394104004Q13.61881298828125,20.540373941040038,13.69141298828125,20.53347394104004Q13.76401298828125,20.526473941040038,13.83391298828125,20.50567394104004Q16.33031298828125,19.76247394104004,18.14591298828125,17.875773941040038Q18.19371298828125,17.82607394104004,18.23171298828125,17.76847394104004Q18.26961298828125,17.710973941040038,18.29651298828125,17.647373941040037Q18.32331298828125,17.58387394104004,18.33811298828125,17.51647394104004Q18.35291298828125,17.449173941040037,18.35511298828125,17.38017394104004Q18.35741298828125,17.31127394104004,18.34701298828125,17.243073941040038Q18.33671298828125,17.174973941040037,18.31401298828125,17.10977394104004Q18.29141298828125,17.04467394104004,18.25731298828125,16.98467394104004Q18.22321298828125,16.924773941040037,18.17871298828125,16.87207394104004Q17.70831298828125,16.31447394104004,17.70831298828125,15.583373941040039Q17.70831298828125,14.754973941040038,18.29411298828125,14.16917394104004Q18.87991298828125,13.583373941040039,19.70831298828125,13.583373941040039Q19.80801298828125,13.583373941040039,19.90721298828125,13.593173941040039Q19.97581298828125,13.59987394104004,20.04451298828125,13.593973941040039Q20.11321298828125,13.588073941040038,20.17971298828125,13.569773941040038Q20.24621298828125,13.551473941040038,20.30821298828125,13.52137394104004Q20.37031298828125,13.491173941040039,20.42581298828125,13.45027394104004Q20.48131298828125,13.40937394104004,20.52841298828125,13.35897394104004Q20.57551298828125,13.30857394104004,20.61261298828125,13.250473941040038Q20.64971298828125,13.192373941040039,20.67561298828125,13.128473941040038Q20.70151298828125,13.06457394104004,20.71531298828125,12.99697394104004Q20.91661298828125,12.01283394104004,20.91661298828125,11.000043941040039Q20.91661298828125,9.471083941040039,20.46241298828125,8.02502394104004Q20.44451298828125,7.967943941040039,20.41771298828125,7.9144339410400395Q20.39101298828125,7.860923941040039,20.35611298828125,7.812333941040039Q20.32121298828125,7.763733941040039,20.27911298828125,7.721283941040039Q20.23691298828125,7.678833941040039,20.18861298828125,7.643603941040039Q20.14021298828125,7.608373941040039,20.08691298828125,7.581253941040039Q20.03361298828125,7.554133941040039,19.97661298828125,7.535813941040039Q19.91961298828125,7.517493941040039,19.86051298828125,7.508423941040039Q19.80141298828125,7.4993639410400394,19.74161298828125,7.499793941040039L19.70831298828125,7.5000439410400395Q18.87991298828125,7.5000439410400395,18.29411298828125,6.914263941040039Q17.70831298828125,6.3284739410400395,17.70831298828125,5.500043941040039Q17.70831298828125,5.032423941040038,17.91311298828125,4.617103941040039Q17.93961298828125,4.563183941040039,17.95731298828125,4.505713941040039Q17.97491298828125,4.448253941040039,17.98321298828125,4.388703941040039Q17.99151298828125,4.329163941040039,17.99021298828125,4.269053941040039Q17.98891298828125,4.208953941040039,17.97801298828125,4.149823941040039Q17.96711298828125,4.090703941040039,17.94701298828125,4.0340639410400385Q17.92681298828125,3.977423941040039,17.89791298828125,3.9247139410400393Q17.86901298828125,3.872013941040039,17.83201298828125,3.8245839410400393Q17.79511298828125,3.777153941040039,17.75111298828125,3.736223941040039Q15.97571298828125,2.0854266410400393,13.65121298828125,1.441956941040039Q13.58921298828125,1.424793941040039,13.52521298828125,1.418439941040039Q13.46111298828125,1.4120869410400392,13.39701298828125,1.4167289410400392Q13.33281298828125,1.421370941040039,13.27041298828125,1.436873941040039Q13.20791298828125,1.4523759410400392,13.14901298828125,1.4782849410400392Q13.09021298828125,1.5041939410400391,13.03651298828125,1.539752941040039Q12.98291298828125,1.575311941040039,12.93621298828125,1.619482941040039Q12.88941298828125,1.6636529410400391,12.85081298828125,1.715143941040039Q12.81221298828125,1.7666339410400391,12.78301298828125,1.8239409410400391Q12.53051298828125,2.318906941040039,12.05841298828125,2.614156941040039Q11.57452298828125,2.916727941040039,10.99998298828125,2.916727941040039Q10.42544298828125,2.916727941040039,9.94159298828125,2.614156941040039Q9.469452988281251,2.318906941040039,9.21694298828125,1.8239409410400391Q9.18770298828125,1.7666339410400391,9.14913298828125,1.715142941040039Q9.11056298828125,1.6636529410400391,9.06379298828125,1.6194819410400392Q9.01702298828125,1.575311941040039,8.96340298828125,1.539752941040039Q8.90979298828125,1.5041939410400391,8.85090298828125,1.4782849410400392Q8.79202298828125,1.4523759410400392,8.729582988281251,1.436873941040039Q8.667142988281249,1.421370941040039,8.60298298828125,1.4167289410400392Q8.53881298828125,1.4120869410400392,8.47479298828125,1.418439941040039Q8.41077298828125,1.424793941040039,8.348772988281251,1.441956941040039Q6.02424298828125,2.085424941040039,4.248882988281251,3.736223941040039Q4.2048529882812495,3.777153941040039,4.16791298828125,3.8245839410400393Q4.13096298828125,3.872013941040039,4.10205298828125,3.9247139410400393Q4.07313298828125,3.977423941040039,4.05298298828125,4.0340639410400385Q4.03283298828125,4.090703941040039,4.0219529882812495,4.149823941040039Q4.011082988281251,4.208953941040039,4.0097729882812505,4.269053941040039Q4.00845298828125,4.329163941040039,4.01672298828125,4.388703941040039Q4.0250029882812495,4.448253941040039,4.04265298828125,4.505713941040039Q4.06031298828125,4.563183941040039,4.0868929882812495,4.617103941040039Q4.29164298828125,5.032423941040038,4.29164298828125,5.500043941040039Q4.29164298828125,6.3284739410400395,3.70586298828125,6.914263941040039Q3.12007298828125,7.5000439410400395,2.29698298828125,7.500063941040039L2.25838698828125,7.499793941040039Q2.1985639882812498,7.4993639410400394,2.13942998828125,7.508433941040039Q2.08029598828125,7.517493941040039,2.02334598828125,7.535813941040039Q1.96639698828125,7.554133941040039,1.91307178828125,7.581253941040039Q1.85974678828125,7.608373941040039,1.81139508828125,7.643603941040039Q1.76304338828125,7.678833941040039,1.72088798828125,7.721283941040039Q1.67873198828125,7.763733941040039,1.64383898828125,7.812323941040039Q1.6089449882812499,7.860913941040039,1.58219598828125,7.9144339410400395Q1.55544698828125,7.967943941040039,1.53751898828125,8.02501394104004Q1.08331298828125,9.47102394104004,1.08331298828125,11.000043941040039Q1.08331298828125,12.012853941040039,1.2846039882812499,12.99697394104004Q1.29842198828125,13.06457394104004,1.32432798828125,13.128473941040038Q1.35023398828125,13.192373941040039,1.38735898828125,13.250473941040038Q1.42448498828125,13.30857394104004,1.47158398828125,13.35897394104004Q1.51868398828125,13.40937394104004,1.5741779882812499,13.45027394104004Q1.62967298828125,13.491173941040039,1.69170098828125,13.52137394104004Q1.75372948828125,13.551473941040038,1.82021208828125,13.569773941040038Q1.88669468828125,13.588073941040038,1.95540198828125,13.593973941040039Q2.02410998828125,13.59987394104004,2.0927379882812502,13.593173941040039Q2.19190398828125,13.583373941040039,2.29164698828125,13.583373941040039Q3.12007298828125,13.583373941040039,3.70586298828125,14.16917394104004Q4.29164298828125,14.754973941040038,4.29164298828125,15.583373941040039Q4.29164298828125,16.31447394104004,3.82120298828125,16.87207394104004Q3.7767329882812497,16.924773941040037,3.74261298828125,16.98467394104004Q3.70850298828125,17.04467394104004,3.68588298828125,17.10977394104004Q3.66327298828125,17.174973941040037,3.65292298828125,17.243073941040038Q3.64256298828125,17.31127394104004,3.64482298828125,17.38017394104004Q3.6470729882812503,17.449173941040037,3.66186298828125,17.51647394104004Q3.67664298828125,17.58387394104004,3.7034629882812498,17.647373941040037Q3.73028298828125,17.710973941040038,3.76824298828125,17.76847394104004Q3.80620298828125,17.82607394104004,3.85402298828125,17.875773941040038Q5.6696829882812505,19.76247394104004,8.16604298828125,20.50567394104004Q8.235932988281249,20.526473941040038,8.30852298828125,20.53347394104004Q8.381112988281249,20.540373941040038,8.45367298828125,20.53327394104004Q8.52624298828125,20.52607394104004,8.59607298828125,20.505073941040038Q8.66590298828125,20.484073941040037,8.73038298828125,20.44997394104004Q8.794862988281249,20.41597394104004,8.85156298828125,20.37007394104004Q8.90827298828125,20.32427394104004,8.95508298828125,20.26837394104004Q9.00190298828125,20.212473941040038,9.037072988281249,20.148573941040038Q9.07223298828125,20.084673941040037,9.09444298828125,20.01517394104004Q9.29012298828125,19.403073941040038,9.80990298828125,19.017473941040038ZM13.08381298828125,17.81277394104004Q12.15691298828125,17.12507394104004,10.99998298828125,17.12507394104004Q9.84306298828125,17.12507394104004,8.916112988281249,17.81277394104004Q8.325552988281249,18.25097394104004,7.97413298828125,18.85797394104004Q6.52583298828125,18.30497394104004,5.3702529882812495,17.25837394104004Q5.79164298828125,16.49827394104004,5.79164298828125,15.583373941040039Q5.79164298828125,14.133673941040039,4.76652298828125,13.108473941040039Q3.87208298828125,12.21407394104004,2.65439598828125,12.100043941040038Q2.58331298828125,11.555363941040039,2.58331298828125,11.000043941040039Q2.58331298828125,9.957663941040039,2.8314049882812498,8.961933941040039Q3.93903298828125,8.802403941040039,4.76652298828125,7.974923941040039Q5.79164298828125,6.949793941040039,5.79164298828125,5.500043941040039Q5.79164298828125,4.9837839410400395,5.64825298828125,4.50278394104004Q6.80816298828125,3.541733941040039,8.22340298828125,3.051125941040039Q8.60104298828125,3.544993941040039,9.14627298828125,3.885953941040039Q9.99504298828125,4.416723941040039,10.99998298828125,4.416723941040039Q12.00491298828125,4.416723941040039,12.85371298828125,3.885953941040039Q13.39891298828125,3.544993941040039,13.77651298828125,3.051126941040039Q15.19181298828125,3.541733941040039,16.35171298828125,4.50278394104004Q16.20831298828125,4.9837839410400395,16.20831298828125,5.500043941040039Q16.20831298828125,6.949793941040039,17.233412988281252,7.974923941040039Q18.06231298828125,8.80375394104004,19.16871298828125,8.962463941040038Q19.41661298828125,9.957973941040038,19.41661298828125,11.000043941040039Q19.41661298828125,11.555353941040039,19.34561298828125,12.100043941040038Q18.12791298828125,12.21407394104004,17.233412988281252,13.108473941040039Q16.20831298828125,14.133673941040039,16.20831298828125,15.583373941040039Q16.20831298828125,16.49827394104004,16.62971298828125,17.25837394104004Q15.47411298828125,18.30497394104004,14.02581298828125,18.85797394104004Q13.67441298828125,18.25097394104004,13.08381298828125,17.81277394104004Z" fill-rule="evenodd" fill="#303133" fill-opacity="1"/></g><g><path d="M8.20105501171875,8.201035938232422Q7.04168701171875,9.360407938232422,7.04168701171875,10.999997938232422Q7.04168701171875,12.639597938232422,8.20105501171875,13.798967938232423Q9.36042701171875,14.958337938232422,11.00001701171875,14.958337938232422Q12.63961701171875,14.958337938232422,13.79898701171875,13.798967938232423Q14.95835701171875,12.639597938232422,14.95835701171875,10.999997938232422Q14.95835701171875,9.360407938232422,13.79898701171875,8.201035938232422Q12.63961701171875,7.041667938232422,11.00001701171875,7.041667938232422Q9.36042701171875,7.041667938232422,8.20105501171875,8.201035938232422ZM9.26171701171875,12.738307938232422Q8.54168701171875,12.018277938232423,8.54168701171875,10.999997938232422Q8.54168701171875,9.98172793823242,9.26171701171875,9.261697938232421Q9.981747011718749,8.541667938232422,11.00001701171875,8.541667938232422Q12.01829701171875,8.541667938232422,12.73832701171875,9.261697938232421Q13.45835701171875,9.98172793823242,13.45835701171875,10.999997938232422Q13.45835701171875,12.018277938232423,12.73832701171875,12.738307938232422Q12.01829701171875,13.458337938232422,11.00001701171875,13.458337938232422Q9.981747011718749,13.458337938232422,9.26171701171875,12.738307938232422Z" fill-rule="evenodd" fill="#303133" fill-opacity="1"/></g></g></svg>