<svg xmlns="http://www.w3.org/2000/svg" xmlns:xlink="http://www.w3.org/1999/xlink" fill="none" version="1.1" width="24" height="24" viewBox="0 0 24 24"><defs><clipPath id="master_svg0_6_838"><rect x="0" y="0" width="24" height="24" rx="0"/></clipPath></defs><g clip-path="url(#master_svg0_6_838)"><g><path d="M22.0001220703125,6L15.0001220703125,6C11.6864120703125,6,9.0001220703125,8.68629,9.0001220703125,12C9.0001220703125,15.3137,11.6864120703125,18,15.0001220703125,18L22.0001220703125,18L22.0001220703125,20C22.0001220703125,20.5523,21.5524220703125,21,21.0001220703125,21L3.0001220703125,21C2.4478370703125,21,2.0001220703125,20.5523,2.0001220703125,20L2.0001220703125,4C2.0001220703125,3.447715,2.4478370703125,3,3.0001220703125,3L21.0001220703125,3C21.5524220703125,3,22.0001220703125,3.447715,22.0001220703125,4L22.0001220703125,6ZM15.0001220703125,8L23.0001220703125,8L23.0001220703125,16L15.0001220703125,16C12.7910220703125,16,11.0001220703125,14.2091,11.0001220703125,12C11.0001220703125,9.79086,12.7910220703125,8,15.0001220703125,8ZM15.0001220703125,11L15.0001220703125,13L18.0001220703125,13L18.0001220703125,11L15.0001220703125,11Z" fill="currentColor" fill-opacity="1"/></g></g></svg>