<svg xmlns="http://www.w3.org/2000/svg" xmlns:xlink="http://www.w3.org/1999/xlink" fill="none" version="1.1" width="48" height="48" viewBox="0 0 48 48"><defs><linearGradient x1="0.5" y1="0" x2="0.5" y2="1" id="master_svg0_53_6184"><stop offset="0%" stop-color="#303133" stop-opacity="1"/><stop offset="100%" stop-color="#303133" stop-opacity="0"/></linearGradient><linearGradient x1="0.5" y1="0" x2="0.5" y2="1" id="master_svg1_53_6184"><stop offset="0%" stop-color="#303133" stop-opacity="1"/><stop offset="100%" stop-color="#303133" stop-opacity="0"/></linearGradient></defs><g><g><ellipse cx="24" cy="24" rx="24" ry="24" fill="#F5F7FA" fill-opacity="1"/></g><g><g transform="matrix(1,0,0,-1,0,48)"><path d="M31,24L31,34L29,34L29,24L31,24Z" fill-rule="evenodd" fill="url(#master_svg0_53_6184)" fill-opacity="1"/></g><g><path d="M19,24L19,34L17,34L17,24L19,24Z" fill-rule="evenodd" fill="url(#master_svg1_53_6184)" fill-opacity="1"/></g><g><path d="M28.9497,19.05025Q26.8995,17,24,17L24,19Q26.07107,19,27.53553,20.46447Q29,21.92893,29,24L31,24Q31,21.10051,28.9497,19.05025ZM20.46447,27.53553Q19,26.07107,19,24L17,24Q17,26.8995,19.05025,28.9497Q21.10051,31,24,31L24,29Q21.92893,29,20.46447,27.53553Z" fill-rule="evenodd" fill="#303133" fill-opacity="1"/></g></g></g></svg>