<svg xmlns="http://www.w3.org/2000/svg" xmlns:xlink="http://www.w3.org/1999/xlink" fill="none" version="1.1" width="22" height="22" viewBox="0 0 22 22"><defs><clipPath id="master_svg0_88_1776"><rect x="0" y="0" width="22" height="22" rx="0"/></clipPath></defs><g clip-path="url(#master_svg0_88_1776)"><g><path d="M18.021339697265624,14.829293688964844L16.023709697265623,14.829293688964844Q15.949839697265626,14.829293688964844,15.877389697265626,14.843693688964844Q15.804939697265626,14.858193688964844,15.736699697265625,14.886393688964844Q15.668449697265626,14.914693688964844,15.607029697265626,14.955693688964844Q15.545609697265625,14.996793688964845,15.493379697265626,15.048993688964844Q15.441149697265624,15.101193688964845,15.400109697265625,15.162693688964843Q15.359069697265625,15.224093688964844,15.330799697265626,15.292293688964843Q15.302529697265625,15.360593688964844,15.288119697265625,15.432993688964844Q15.273709697265625,15.505493688964844,15.273709697265625,15.579293688964844Q15.273709697265625,15.653193688964844,15.288119697265625,15.725693688964844Q15.302529697265625,15.798093688964844,15.330799697265626,15.866293688964843Q15.359069697265625,15.934593688964844,15.400109697265625,15.995993688964845Q15.441149697265624,16.057393688964844,15.493379697265626,16.109693688964846Q15.545609697265625,16.161893688964845,15.607029697265626,16.202893688964842Q15.668449697265626,16.243993688964842,15.736699697265625,16.272193688964844Q15.804939697265626,16.300493688964842,15.877389697265626,16.314893688964844Q15.949839697265626,16.329293688964846,16.023709697265623,16.329293688964846L18.021339697265624,16.329293688964846Q18.829039697265625,16.329293688964846,19.400739697265625,15.760893688964844Q19.974139697265628,15.190693688964844,19.974139697265628,14.383393688964844L19.974139697265628,4.018533688964844Q19.974139697265628,3.211246688964844,19.400739697265625,2.6410366889648436Q18.829039697265625,2.0725936889648438,18.021339697265624,2.0725936889648438L7.597229697265625,2.0725936889648438Q6.789608697265625,2.0725936889648438,6.217912697265625,2.6410366889648436Q5.644439697265625,3.2112476889648436,5.644439697265625,4.018533688964844L5.644439697265625,5.982693688964844Q5.644439697265625,6.056563688964843,5.658850697265625,6.129013688964844Q5.673261697265625,6.201453688964843,5.701529697265625,6.269703688964844Q5.729798697265625,6.337953688964843,5.770837697265625,6.399373688964843Q5.811876697265625,6.460793688964843,5.864109697265625,6.513023688964844Q5.916342697265625,6.565253688964844,5.977761697265625,6.606293688964843Q6.039181697265625,6.647333688964844,6.107426697265625,6.675603688964843Q6.175672697265625,6.703873688964844,6.248121697265625,6.718283688964844Q6.320571197265625,6.732693688964844,6.394439697265625,6.732693688964844Q6.468308197265625,6.732693688964844,6.540757697265625,6.718283688964844Q6.613206697265625,6.703873688964844,6.681452697265625,6.675603688964843Q6.749697697265625,6.647333688964844,6.811117697265625,6.606293688964843Q6.872536697265625,6.565253688964844,6.924769697265625,6.513023688964844Q6.977002697265625,6.460793688964843,7.018041697265625,6.399373688964843Q7.059080697265625,6.337953688964843,7.087349697265625,6.269703688964844Q7.115617697265625,6.201453688964843,7.130028697265625,6.129013688964844Q7.144439697265625,6.056563688964843,7.144439697265625,5.982693688964844L7.144439697265625,4.018533688964844Q7.144439697265625,3.835073688964844,7.2755426972656245,3.704718688964844Q7.408419697265625,3.5725936889648438,7.597229697265625,3.5725936889648438L18.021339697265624,3.5725936889648438Q18.210139697265625,3.5725936889648438,18.343039697265624,3.704718688964844Q18.474139697265628,3.835073688964844,18.474139697265628,4.018533688964844L18.474139697265628,14.383393688964844Q18.474139697265628,14.566893688964845,18.343039697265624,14.697193688964843Q18.210139697265625,14.829293688964844,18.021339697265624,14.829293688964844Z" fill-rule="evenodd" fill="#303133" fill-opacity="1"/></g><g><path d="M16.355517871093753,17.98146764831543L16.355517871093753,7.61660764831543Q16.355517871093753,6.809320648315429,15.78211787109375,6.23911064831543Q15.21041787109375,5.67066764831543,14.40271787109375,5.67066764831543L3.9786078710937502,5.67066764831543Q3.17098687109375,5.67066764831543,2.59929087109375,6.23911064831543Q2.02581787109375,6.8093216483154295,2.02581787109375,7.61660764831543L2.02581787109375,17.98146764831543Q2.02581787109375,18.788767648315428,2.59929087109375,19.358967648315428Q3.17098687109375,19.927367648315432,3.9786078710937502,19.927367648315432L14.40271787109375,19.927367648315432Q15.21041787109375,19.927367648315432,15.78211787109375,19.358967648315428Q16.355517871093753,18.788767648315428,16.355517871093753,17.98146764831543ZM14.72441787109375,7.30279264831543Q14.85551787109375,7.43314764831543,14.85551787109375,7.61660764831543L14.85551787109375,17.98146764831543Q14.85551787109375,18.164967648315432,14.72441787109375,18.29526764831543Q14.59151787109375,18.427367648315432,14.40271787109375,18.427367648315432L3.9786078710937502,18.427367648315432Q3.7898078710937497,18.427367648315432,3.65692087109375,18.29526764831543Q3.52581787109375,18.164967648315432,3.52581787109375,17.98146764831543L3.52581787109375,7.61660764831543Q3.52581787109375,7.43314764831543,3.65692087109375,7.30279264831543Q3.78979787109375,7.17066764831543,3.9786078710937502,7.17066764831543L14.40271787109375,7.17066764831543Q14.59151787109375,7.17066764831543,14.72441787109375,7.30279264831543Z" fill-rule="evenodd" fill="#303133" fill-opacity="1"/></g></g></svg>