<svg xmlns="http://www.w3.org/2000/svg" xmlns:xlink="http://www.w3.org/1999/xlink" fill="none" version="1.1" width="34.223876953125" height="41.3759765625" viewBox="0 0 34.223876953125 41.3759765625"><g><rect x="0" y="0" width="34.223876953125" height="41.3759765625" rx="0"/><g><g><path d="M4.7099609375,9.5L5.5099489375,22L27.9099609375,22L28.7099609375,9.5L4.7099609375,9.5Z" fill="#F5F7F9" fill-opacity="1"/></g><g><path d="M5.5099489375,22L4.7099609375,9.5L8.7099609375,5L24.7099609375,5L28.7099609375,9.5L27.9099609375,22L5.5099489375,22ZM6.4923609375,9L9.159030937499999,6L24.2608609375,6L26.9275609375,9L6.4923609375,9L6.4923609375,9ZM6.4479909375,21L5.7440109375,10L27.6759609375,10L26.9719609375,21L6.4479909375,21Z" fill-rule="evenodd" fill="#BFC2CC" fill-opacity="1"/></g><g><path d="M17.2099609375,0L17.2099609375,3.5L16.2099609375,3.5L16.2099609375,0L17.2099609375,0Z" fill-rule="evenodd" fill="#BFC2CC" fill-opacity="1"/></g><g><path d="M22.1843009375,0.658114L21.1843029375,3.65811L20.2356189375,3.34189L21.2356189375,0.341886L22.1843009375,0.658114Z" fill-rule="evenodd" fill="#BFC2CC" fill-opacity="1"/></g><g transform="matrix(-1,0,0,1,25.419921875,0)"><path d="M14.1843009375,0.658114L13.1843029375,3.65811L12.2356189375,3.34189L13.2356189375,0.341886L14.1843009375,0.658114Z" fill-rule="evenodd" fill="#BFC2CC" fill-opacity="1"/></g></g><g><path d="M-0.00003906249999996447,30.432000000000002L-0.00003906249999996447,39L6.2759609375,39L6.2759609375,38.147999999999996L0.9839609375,38.147999999999996L0.9839609375,35.004L5.7839609375,35.004L5.7839609375,34.152L0.9839609375,34.152L0.9839609375,31.284L6.0719609375,31.284L6.0719609375,30.432000000000002L-0.00003906249999996447,30.432000000000002ZM10.2359609375,32.628C9.5399609375,32.628,8.9519609375,32.952,8.4839609375,33.624L8.4839609375,32.796L7.5239609375,32.796L7.5239609375,39L8.4839609375,39L8.4839609375,35.22C8.4839609375,34.728,8.6279609375,34.308,8.9159609375,33.972C9.2039609375,33.612,9.5639609375,33.444,10.0079609375,33.444C10.9559609375,33.444,11.4359609375,33.984,11.4359609375,35.088L11.4359609375,39L12.3959609375,39L12.3959609375,35.112C12.3959609375,34.608000000000004,12.5279609375,34.212,12.8159609375,33.9C13.0799609375,33.588,13.4279609375,33.444,13.8359609375,33.444C14.3639609375,33.444,14.7479609375,33.576,14.987960937499999,33.864C15.2159609375,34.128,15.335960937500001,34.536,15.335960937500001,35.088L15.335960937500001,39L16.2959609375,39L16.2959609375,34.932C16.2959609375,34.224000000000004,16.0919609375,33.66,15.707960937500001,33.24C15.2999609375,32.832,14.783960937500002,32.628,14.1359609375,32.628C13.7039609375,32.628,13.3439609375,32.724000000000004,13.0439609375,32.916C12.7079609375,33.096000000000004,12.4199609375,33.396,12.1799609375,33.804C11.8319609375,33.012,11.1839609375,32.628,10.2359609375,32.628ZM20.7479609375,32.628C19.8119609375,32.628,19.1279609375,33.024,18.6839609375,33.816L18.6839609375,32.796L17.7839609375,32.796L17.7839609375,41.376L18.7439609375,41.376L18.7439609375,37.872C19.2239609375,38.736000000000004,19.9079609375,39.168,20.7959609375,39.168C21.6839609375,39.168,22.3679609375,38.832,22.8719609375,38.184C23.3279609375,37.584,23.5679609375,36.828,23.5679609375,35.916C23.5679609375,34.980000000000004,23.3279609375,34.224000000000004,22.8599609375,33.624C22.3439609375,32.952,21.6359609375,32.628,20.7479609375,32.628ZM20.6279609375,33.42C21.2879609375,33.42,21.7919609375,33.66,22.1399609375,34.164C22.4279609375,34.596000000000004,22.5839609375,35.184,22.5839609375,35.916C22.5839609375,36.66,22.4279609375,37.248,22.1159609375,37.68C21.7679609375,38.135999999999996,21.2639609375,38.376,20.5919609375,38.376C20.0159609375,38.376,19.5719609375,38.147999999999996,19.2359609375,37.716C18.8759609375,37.272,18.7079609375,36.696,18.7079609375,35.976L18.7079609375,35.856C18.7079609375,35.16,18.8639609375,34.584,19.1759609375,34.152C19.5119609375,33.66,20.0039609375,33.42,20.6279609375,33.42ZM26.4719609375,30.792L25.5239609375,31.188L25.5239609375,32.796L24.2759609375,32.796L24.2759609375,33.6L25.5239609375,33.6L25.5239609375,37.548C25.5239609375,38.016,25.6199609375,38.364000000000004,25.8239609375,38.604C26.0399609375,38.868,26.4119609375,39,26.9159609375,39L27.8519609375,39L27.8519609375,38.196L27.0599609375,38.196C26.8439609375,38.196,26.6879609375,38.135999999999996,26.6039609375,38.04C26.5079609375,37.944,26.4719609375,37.775999999999996,26.4719609375,37.548L26.4719609375,33.6L28.0079609375,33.6L28.0079609375,32.796L26.4719609375,32.796L26.4719609375,30.792ZM28.3919609375,32.796L30.851960937500003,38.856L29.7839609375,41.376L30.827960937500002,41.376L34.2239609375,32.796L33.1679609375,32.796L31.3319609375,37.692L29.4359609375,32.796L28.3919609375,32.796Z" fill="#BFC2CC" fill-opacity="1"/></g></g></svg>