<svg xmlns="http://www.w3.org/2000/svg" xmlns:xlink="http://www.w3.org/1999/xlink" fill="none" version="1.1" width="18" height="18" viewBox="0 0 18 18"><defs><clipPath id="master_svg0_319_12222"><rect x="0" y="0" width="18" height="18" rx="0"/></clipPath></defs><g clip-path="url(#master_svg0_319_12222)"><g><path d="M15.787751171875,2.65539965625Q15.685851171875,2.56813365625,15.559951171875,2.52161565625Q15.434151171875,2.47509765625,15.299951171875,2.47509765625L2.699951171875,2.47509765625Q2.626082671875,2.47509765625,2.553633171875,2.48950865625Q2.481184171875,2.50391965625,2.412938171875,2.53218765625Q2.344693171875,2.56045665625,2.283273171875,2.60149565625Q2.221854171875,2.64253465625,2.169621171875,2.69476765625Q2.117388171875,2.74700065625,2.076349171875,2.80841965625Q2.035310171875,2.86983965625,2.007041171875,2.93808465625Q1.978773171875,3.00633065625,1.964362171875,3.07877965625Q1.949951171875,3.15122915625,1.949951171875,3.22509765625Q1.949951171875,3.35927165625,1.9964691718749998,3.48512365625Q2.042987171875,3.61097465625,2.130253171875,3.71289365625L6.989951171875,9.388547656250001L6.989951171875,13.53059765625Q6.989951171875,13.63559765625,7.018751171875,13.73649765625Q7.047551171875,13.83739765625,7.102941171875,13.92649765625Q7.158331171875,14.01559765625,7.236051171875,14.08609765625Q7.313771171875,14.15659765625,7.407861171875,14.20309765625L9.927861171875,15.44759765625Q10.061621171875,15.51359765625,10.210481171875,15.52349765625Q10.359341171875,15.53329765625,10.500641171875,15.48539765625Q10.641931171875001,15.43759765625,10.754151171875,15.33929765625Q10.866371171875,15.24099765625,10.932421171875,15.10719765625Q11.009951171875,14.95019765625,11.009951171875,14.77509765625L11.009951171875,9.388547656250001L15.869651171875,3.71289265625Q15.966651171875,3.59957265625,16.012951171875002,3.45774765625Q16.059251171874998,3.31592235625,16.047751171875,3.16718345625Q16.036151171874998,3.01844465625,15.968651171875,2.88543665625Q15.901051171875,2.75242865625,15.787751171875,2.65539965625ZM13.670451171875,3.97509765625L4.329491171875,3.97509765625L8.309651171875,8.62353765625Q8.396911171875,8.725447656250001,8.443431171875,8.85129765625Q8.489951171875,8.97715765625,8.489951171875,9.111327656250001L8.489951171875,13.06454765625L9.509951171874999,13.56829765625L9.509951171874999,9.111327656250001Q9.509951171874999,8.97715765625,9.556471171875,8.85129765625Q9.602991171875,8.725447656250001,9.690251171875001,8.62353765625L13.670451171875,3.97509765625Z" fill-rule="evenodd" fill="#303133" fill-opacity="1"/></g></g></svg>